#N canvas 230 74 779 685 10;
#X obj 21 25 osc~ 880;
#X obj 20 56 *~ 0.3;
#X obj 88 54 *~ 0.3;
#X obj 347 167 loadbang;
#X obj 347 244 random 128;
#X obj 43 223 *~;
#X obj 88 25 osc~ 2;
#X obj 347 195 metro 100;
#X obj 231 140 send cpp_instance;
#X obj 225 79 r jawn;
#X obj 229 113 random 128;
#X obj 278 243 exp~;
#X obj 297 312 snapshot~;
#X obj 305 344 print;
#X obj 365 343 send cpp_instance;
#X obj 221 203 adc~;
#X obj 174 301 dac~;
#X connect 0 0 1 0;
#X connect 1 0 5 0;
#X connect 2 0 5 1;
#X connect 3 0 7 0;
#X connect 5 0 16 0;
#X connect 6 0 2 0;
#X connect 7 0 4 0;
#X connect 7 0 12 0;
#X connect 9 0 10 0;
#X connect 10 0 8 0;
#X connect 12 0 13 0;
#X connect 12 0 14 0;
#X connect 15 0 12 0;
#X connect 15 0 16 1;
