#N canvas 124 81 996 636 10;
#X obj 21 25 osc~ 880;
#X obj 20 56 *~ 0.3;
#X obj 88 54 *~ 0.3;
#X obj 43 223 *~;
#X obj 88 25 osc~ 2;
#X obj 224 299 snapshot~;
#X obj 79 223 adc~;
#X obj 64 353 dac~;
#X obj 225 338 print;
#X obj 369 80 notein;
#X floatatom 403 111 5 0 0 0 - - -;
#X floatatom 365 112 5 0 0 0 - - -;
#X floatatom 446 112 5 0 0 0 - - -;
#X msg 365 194 note: \$1;
#X msg 426 194 velocity: \$1;
#X msg 514 195 channel \$1;
#X obj 836 397 noteout;
#X floatatom 836 369 3 0 0 0 - - -;
#X floatatom 874 369 3 0 0 0 - - -;
#X floatatom 909 369 2 0 0 0 - - -;
#X obj 514 374 s bang_out;
#X obj 753 28 loadbang;
#X obj 306 239 osc~ 220;
#X floatatom 806 227 5 0 0 0 - - -;
#X floatatom 750 227 5 0 0 0 - - -;
#X msg 749 196 220;
#X obj 762 263 +;
#X obj 753 98 bng 15 250 50 0 empty empty empty 17 7 0 10 -262144 -1
-1;
#X obj 81 258 +~;
#X obj 149 322 +~;
#X obj 835 325 ftom;
#X msg 875 326 64;
#X msg 910 326 0;
#X obj 223 127 vsl 15 128 0 1 0 0 empty empty empty 0 -9 0 10 -262144
-1 -1 3175 1;
#X obj 262 272 *~;
#X obj 124 115 vsl 15 128 0 2 0 0 empty empty empty 0 -9 0 10 -262144
-1 -1 3175 1;
#X obj 121 275 *~;
#X obj 243 16 loadbang;
#X obj 243 49 bng 15 250 50 0 empty empty empty 17 7 0 10 -262144 -1
-1;
#X msg 130 94 0.5;
#X obj 192 61;
#X msg 223 92 0.1;
#X obj 806 199 random 220;
#X obj 312 195 mtof;
#X obj 805 165 metro 1000;
#X connect 0 0 1 0;
#X connect 1 0 3 0;
#X connect 2 0 3 1;
#X connect 4 0 2 0;
#X connect 5 0 8 0;
#X connect 6 0 28 0;
#X connect 6 1 28 1;
#X connect 9 0 11 0;
#X connect 9 0 43 0;
#X connect 9 1 10 0;
#X connect 9 2 12 0;
#X connect 10 0 14 0;
#X connect 11 0 13 0;
#X connect 12 0 15 0;
#X connect 17 0 16 0;
#X connect 18 0 16 1;
#X connect 19 0 16 2;
#X connect 21 0 25 0;
#X connect 21 0 44 0;
#X connect 22 0 34 1;
#X connect 23 0 26 0;
#X connect 23 0 30 0;
#X connect 23 0 31 0;
#X connect 24 0 26 1;
#X connect 25 0 24 0;
#X connect 27 0 25 0;
#X connect 27 0 44 0;
#X connect 28 0 36 0;
#X connect 29 0 7 0;
#X connect 29 0 7 1;
#X connect 30 0 17 0;
#X connect 31 0 18 0;
#X connect 32 0 19 0;
#X connect 33 0 34 0;
#X connect 34 0 29 1;
#X connect 35 0 36 1;
#X connect 36 0 29 0;
#X connect 37 0 38 0;
#X connect 38 0 39 0;
#X connect 38 0 41 0;
#X connect 39 0 35 0;
#X connect 41 0 33 0;
#X connect 42 0 23 0;
#X connect 43 0 22 0;
#X connect 44 0 42 0;
